<svg xmlns="http://www.w3.org/2000/svg" xml:space="preserve" viewBox="0 75 512 362.1">
  <path d="M1991 4245c-715-17-1123-41-1303-78-416-83-594-291-665-772C1 3250-8 2266 8 1875c18-401 46-584 114-746 106-246 285-368 635-432 230-42 758-66 1434-67 415 0 1656 27 1844 41 290 21 544 73 686 140 232 111 349 381 389 904 13 171 13 1228 0 1426-22 339-55 500-134 663a595 595 0 0 1-421 338c-131 33-446 67-869 93-240 15-1237 20-1695 10m1347-979c0-3-173-300-384-660s-384-656-384-659 173-6 384-6h384v-328H1781v328h385c317 0 385 2 380 13-3 8-176 305-385 660s-380 649-380 652 351 6 779 6 778-3 778-6" style="fill:#f55848" transform="matrix(.1 0 0 -.1 0 500)"/>
</svg>
