<svg xmlns="http://www.w3.org/2000/svg" xml:space="preserve" viewBox="0 0 512 512">
  <path fill="#fafafa" d="m40.6 65.6 174.1 156.7a62.63 62.63 0 0 0 83.9-.1L471.4 65.6C506.7 32.8 408.6.2 256.8 0h-1.6C103.5.2 5.3 32.8 40.6 65.6m-7.2 130 181.3 163.2a62.63 62.63 0 0 0 83.9-.1l180.1-163.1v-71.2L289.4 295.8a48.75 48.75 0 0 1-65.5.1L33.4 124.4zm181.3 300.3L43.8 342a31.2 31.2 0 0 1-10.4-23.4v-57.1L224 433.1a48.75 48.75 0 0 0 65.5-.1l189.2-171.4v57.2c0 8.8-3.7 17.3-10.3 23.3L298.5 495.9a62.6 62.6 0 0 1-83.8 0"/>
</svg>
